<?xml version="1.0" standalone="no"?>
<!DOCTYPE svg PUBLIC "-//W3C//DTD SVG 20010904//EN"
 "http://www.w3.org/TR/2001/REC-SVG-20010904/DTD/svg10.dtd">
<svg version="1.0" xmlns="http://www.w3.org/2000/svg"
 width="16.000000pt" height="16.000000pt" viewBox="0 0 16.000000 16.000000"
 preserveAspectRatio="xMidYMid meet">
<metadata>
Created by potrace 1.11, written by Peter Selinger 2001-2013
</metadata>
<g transform="translate(0.000000,16.000000) scale(0.001143,-0.001143)"
fill="#000000" stroke="none">
<path d="M13056 13857 c-50 -78 -173 -268 -275 -422 -245 -372 -271 -412 -391
-605 -192 -308 -358 -546 -371 -533 -4 4 -30 82 -59 173 -28 91 -55 174 -60
185 -5 11 -36 106 -70 210 -34 105 -64 197 -69 205 -4 8 -29 84 -56 167 -28
84 -53 153 -56 153 -8 0 -37 -167 -55 -325 -3 -27 -9 -84 -14 -125 -5 -41 -12
-104 -15 -140 -4 -36 -8 -76 -10 -90 -2 -14 -7 -54 -10 -90 -3 -36 -10 -92
-15 -125 -5 -33 -12 -85 -15 -115 -4 -30 -9 -70 -13 -89 l-7 -34 -190 198
c-219 228 -364 369 -371 363 -1 -2 9 -37 23 -78 14 -41 47 -145 73 -230 27
-85 76 -243 110 -350 34 -107 65 -205 67 -217 5 -21 -29 -11 -423 123 -709
240 -837 282 -877 287 -21 3 -36 2 -33 -1 5 -5 144 -96 756 -498 107 -71 275
-181 373 -246 98 -65 182 -118 187 -118 4 0 10 -3 12 -7 13 -30 186 -101 309
-128 44 -9 99 -29 99 -35 0 -4 -11 -33 -24 -66 -56 -137 -79 -273 -80 -459 -1
-237 24 -362 150 -765 76 -245 48 -347 -120 -426 -96 -45 -227 -82 -371 -104
-99 -15 -165 -18 -375 -15 -140 2 -266 6 -280 8 -14 3 -56 8 -95 12 -94 8
-155 15 -185 20 -22 4 -52 7 -200 20 -19 2 -45 4 -57 4 -15 1 -50 37 -121 129
-84 106 -266 332 -381 472 -52 63 -156 194 -219 276 -67 87 -63 85 -138 63
-17 -5 -40 -11 -50 -14 -23 -4 -72 -17 -539 -134 -198 -50 -371 -93 -385 -96
-14 -3 -49 -11 -79 -19 l-53 -15 -132 63 c-359 174 -630 279 -966 376 -121 35
-344 92 -410 104 -14 3 -50 10 -80 16 -30 6 -70 13 -89 16 -18 3 -43 7 -55 10
-21 4 -205 29 -286 38 -48 6 -141 13 -280 21 -96 6 -461 6 -530 0 -25 -2 -88
-6 -140 -10 -52 -3 -108 -8 -125 -10 -16 -2 -75 -9 -130 -15 -55 -6 -138 -18
-185 -25 -47 -8 -101 -16 -120 -19 -99 -15 -280 -55 -435 -96 -787 -205 -1519
-590 -2151 -1132 -150 -129 -453 -431 -570 -568 -49 -58 -92 -107 -95 -110
-20 -16 -268 -355 -341 -465 -148 -224 -332 -562 -428 -785 -18 -41 -38 -88
-46 -105 -78 -176 -202 -553 -259 -789 -54 -227 -111 -558 -129 -751 -29 -310
-29 -831 0 -1100 97 -894 384 -1700 870 -2443 52 -78 98 -148 104 -155 5 -6
49 -64 96 -127 48 -63 108 -140 133 -170 25 -30 57 -68 71 -84 56 -67 162
-178 285 -301 608 -610 1338 -1061 2145 -1326 316 -103 700 -190 996 -224 27
-3 60 -8 74 -10 14 -2 61 -7 105 -10 44 -4 89 -9 100 -12 38 -9 720 -11 825
-2 165 14 412 47 565 75 77 14 151 28 165 30 105 20 421 107 590 164 491 164
936 385 1353 674 657 454 1179 1011 1597 1706 77 127 265 494 310 605 18 44
40 98 50 120 18 41 92 243 129 351 61 181 144 514 181 723 16 91 24 145 45
291 12 85 24 220 34 370 8 118 6 595 -3 685 -3 28 -8 79 -11 115 -16 176 -51
415 -86 585 -12 55 -22 107 -24 115 -17 87 -95 370 -149 541 l-14 46 34 44
c19 24 40 51 47 59 7 8 37 47 67 85 30 39 57 72 60 75 21 19 259 314 336 417
81 107 93 128 82 142 -19 24 -162 195 -169 201 -3 3 -32 39 -64 80 -33 41 -62
77 -65 80 -3 3 -24 28 -45 55 -22 28 -43 52 -46 55 -13 12 -322 407 -395 504
l-29 39 25 -6 c106 -26 600 -27 725 -2 11 2 38 6 60 9 308 38 617 161 783 311
142 128 211 289 210 485 -1 129 -17 194 -108 440 -72 196 -91 271 -96 393 -3
70 -1 87 10 87 28 0 171 -21 207 -31 38 -10 21 13 297 -394 90 -132 252 -346
252 -332 0 2 -9 30 -19 63 -11 32 -36 113 -56 179 -20 66 -49 158 -65 205 -16
47 -27 86 -25 88 3 3 62 -27 255 -133 134 -73 186 -102 260 -145 36 -20 88
-50 115 -65 28 -15 111 -62 185 -103 225 -125 321 -175 415 -219 l50 -23 -55
51 c-30 28 -77 72 -105 98 -42 39 -218 196 -354 316 -18 17 -39 35 -45 40 -6
6 -54 48 -106 95 -52 47 -124 112 -160 146 -36 34 -95 89 -132 124 -38 34 -68
66 -68 70 0 3 19 5 43 4 52 -3 556 -14 884 -19 210 -3 242 -1 232 11 -25 30
-286 198 -574 369 -373 222 -605 373 -605 395 0 3 102 75 228 159 476 319 888
611 862 611 -13 0 -215 -52 -375 -96 -125 -35 -927 -264 -942 -269 -7 -2 -3
27 12 83 13 48 33 123 45 167 11 44 27 100 34 125 8 25 21 70 30 100 8 30 56
195 107 365 50 171 102 348 115 395 14 47 41 139 61 205 81 275 164 579 161
592 -2 7 -43 -51 -92 -130z m-7337 -4151 c52 -4 108 -9 125 -11 17 -2 55 -7
85 -10 140 -14 311 -44 531 -95 424 -98 957 -335 1355 -604 394 -265 768 -621
1046 -996 456 -613 748 -1349 824 -2075 11 -107 15 -143 21 -215 7 -92 8 -480
0 -535 -2 -22 -8 -76 -11 -120 -14 -178 -69 -506 -111 -663 -8 -28 -21 -78
-29 -110 -57 -212 -164 -489 -280 -727 -169 -345 -385 -668 -634 -950 -46 -52
-346 -351 -391 -391 -141 -122 -311 -250 -475 -358 -501 -331 -1117 -570
-1684 -652 -25 -4 -54 -8 -65 -10 -10 -2 -44 -6 -75 -9 -31 -4 -67 -8 -81 -11
-148 -24 -757 -25 -885 0 -11 2 -51 7 -90 11 -98 10 -280 41 -410 71 -60 14
-117 27 -125 29 -124 29 -470 145 -599 202 -223 97 -583 291 -688 369 -17 13
-34 24 -38 24 -3 0 -11 5 -18 10 -7 6 -59 44 -116 86 -779 567 -1354 1395
-1608 2314 -35 129 -74 298 -88 390 -3 19 -8 42 -10 50 -2 8 -7 40 -10 70 -4
30 -8 57 -10 60 -4 6 -14 112 -30 318 -13 161 -8 473 11 660 10 105 13 130 19
177 15 116 46 282 75 402 17 70 33 135 35 143 27 115 152 467 217 610 193 422
425 782 718 1115 100 113 382 385 468 450 7 6 21 17 30 26 40 38 247 189 362
265 351 230 716 399 1135 525 72 22 141 42 155 45 14 3 36 7 50 10 14 3 43 10
65 16 22 5 49 12 60 14 72 14 143 27 162 29 23 3 92 14 125 21 18 3 111 14
168 19 19 2 87 7 150 11 63 3 116 7 117 8 5 4 369 -2 452 -8z"/>
<path d="M3117 7828 c-20 -51 -58 -149 -85 -218 -146 -372 -216 -550 -233
-595 -18 -48 -19 -112 -19 -2010 l0 -1960 665 0 c659 0 665 0 666 -20 0 -11 1
-170 1 -352 l0 -333 378 0 379 0 352 352 352 353 542 0 543 0 726 726 726 727
0 1711 0 1711 -2479 0 -2478 0 -36 -92z m4493 -448 c1 -22 1 -611 1 -1310 0
-698 0 -1281 -1 -1294 0 -18 -103 -127 -416 -440 l-416 -416 -666 0 -667 0
-352 -352 -353 -353 0 352 0 353 -562 2 -563 3 -1 1740 c0 957 1 1743 3 1748
2 4 902 7 1999 7 l1994 0 0 -40z"/>
<path d="M4957 6460 c-10 -4 -12 -165 -12 -730 l0 -725 251 -1 252 -1 0 728 0
729 -26 1 c-152 3 -455 3 -465 -1z"/>
<path d="M6297 6462 c-16 -3 -17 -59 -17 -731 l0 -728 250 0 250 0 -2 730 -3
729 -231 2 c-127 0 -238 0 -247 -2z"/>
</g>
</svg>
